<svg width="12" height="13" viewBox="0 0 12 13" fill="none" xmlns="http://www.w3.org/2000/svg">
<g clip-path="url(#clip0_20_262)">
<path d="M6.00035 0.485107C2.68674 0.485107 0.000454903 3.17145 0.000454903 6.48505C0.000454903 9.79856 2.68674 12.4851 6.00035 12.4851C9.31397 12.4851 12.0005 9.79856 12.0005 6.48505C12.0005 3.17145 9.31397 0.485107 6.00035 0.485107ZM6.00047 2.59257L9.55105 4.80659H2.4499L6.00047 2.59257ZM9.59529 8.34211H9.59493C9.59493 8.69723 9.30713 8.98499 8.95204 8.98499H3.04891C2.69378 8.98499 2.40601 8.69719 2.40601 8.34211V4.94747C2.40601 4.90991 2.40985 4.87339 2.4161 4.83751L5.80847 6.95285C5.81263 6.95545 5.81707 6.95721 5.82135 6.95961C5.82583 6.96209 5.83039 6.96449 5.83495 6.96677C5.85891 6.97913 5.88359 6.98909 5.90883 6.99561C5.91143 6.99633 5.91403 6.99665 5.91663 6.99725C5.94431 7.00377 5.97235 7.00785 6.00035 7.00785H6.00055C6.00075 7.00785 6.00095 7.00785 6.00095 7.00785C6.02895 7.00785 6.057 7.00389 6.08468 6.99725C6.08728 6.99661 6.08988 6.99633 6.09248 6.99561C6.11768 6.98909 6.14228 6.97913 6.16636 6.96677C6.17092 6.96449 6.17548 6.96209 6.17996 6.95961C6.1842 6.95721 6.18868 6.95545 6.19284 6.95285L9.58521 4.83751C9.59145 4.87339 9.59529 4.90983 9.59529 4.94747V8.34211Z" fill="#FAFAFA"/>
</g>
<defs>
<clipPath id="clip0_20_262">
<rect width="12" height="12" fill="white" transform="translate(0 0.485107)"/>
</clipPath>
</defs>
</svg>
