<svg width="15" height="15" viewBox="0 0 15 15" fill="none" xmlns="http://www.w3.org/2000/svg">
<path d="M12.5 1.875H2.5C2.33424 1.875 2.17527 1.94085 2.05806 2.05806C1.94085 2.17527 1.875 2.33424 1.875 2.5V12.5C1.875 12.6658 1.94085 12.8247 2.05806 12.9419C2.17527 13.0592 2.33424 13.125 2.5 13.125H7.88438V8.775H6.42313V7.07188H7.88438V5.82188C7.88438 4.36875 8.77188 3.57688 10.0719 3.57688C10.5088 3.57563 10.9463 3.59813 11.3813 3.64375V5.15625H10.4844C9.77938 5.15625 9.64188 5.4925 9.64188 5.98438V7.06875H11.3275L11.1088 8.77188H9.64125V13.125H12.5C12.6658 13.125 12.8247 13.0592 12.9419 12.9419C13.0592 12.8247 13.125 12.6658 13.125 12.5V2.5C13.125 2.33424 13.0592 2.17527 12.9419 2.05806C12.8247 1.94085 12.6658 1.875 12.5 1.875Z" fill="#FAFAFA"/>
</svg>
