<svg width="215" height="137" viewBox="0 0 215 137" fill="none" xmlns="http://www.w3.org/2000/svg">
<g clip-path="url(#clip0_20_76)">
<path d="M52.3664 137C81.2875 137 104.733 133.948 104.733 130.184C104.733 126.419 81.2875 123.368 52.3664 123.368C23.4452 123.368 0 126.419 0 130.184C0 133.948 23.4452 137 52.3664 137Z" fill="#2B3653"/>
<path d="M190.85 61.4593H145.973L122.382 99.6632C129.467 104.056 137.639 106.377 145.973 106.364C170.758 106.364 190.85 86.2597 190.85 61.4593Z" fill="#F2F2F2"/>
<path d="M82.5344 125.94C89.1202 125.94 94.459 120.598 94.459 114.008C94.459 107.418 89.1202 102.076 82.5344 102.076C75.9486 102.076 70.6098 107.418 70.6098 114.008C70.6098 120.598 75.9486 125.94 82.5344 125.94Z" fill="#2B3653"/>
<path d="M60.1361 27.1956C60.1361 27.1956 60.5619 31.4557 59.2847 33.1597C58.0074 34.8638 62.4777 45.514 62.4777 45.514L68.8639 33.5857C68.8639 33.5857 66.7352 32.3077 68.0124 28.6866L60.1361 27.1956Z" fill="#FFCECE"/>
<path opacity="0.1" d="M60.1361 27.1956C60.1361 27.1956 60.5619 31.4557 59.2847 33.1597C58.0074 34.8638 62.4777 45.514 62.4777 45.514L68.8639 33.5857C68.8639 33.5857 66.7352 32.3077 68.0124 28.6866L60.1361 27.1956Z" fill="black"/>
<path d="M79.2946 48.7091L79.5074 57.4424L71.4183 70.4357L69.9282 65.5366L74.3985 56.8033C74.3985 56.8033 72.9084 52.7562 73.3342 50.4132C73.7599 48.0701 79.2946 48.7091 79.2946 48.7091Z" fill="#FFCECE"/>
<path d="M46.0866 47.4311L45.8737 56.1644L53.9629 69.1577L55.453 64.2586L50.9827 55.5253C50.9827 55.5253 52.4728 51.4782 52.047 49.1352C51.6213 46.7921 46.0866 47.4311 46.0866 47.4311Z" fill="#FFCECE"/>
<path d="M52.047 61.4895L51.1955 63.6196C50.0603 64.6747 49.1678 65.9641 48.5798 67.3985C47.9917 68.8328 47.7221 70.3779 47.7896 71.9268L45.2351 98.3395C45.2351 98.3395 43.5322 100.257 44.1708 102.6C44.1708 102.6 42.6807 110.481 43.5322 113.037C43.5322 113.037 39.9134 119.64 43.745 120.066C47.5767 120.492 48.8539 120.492 49.2797 119.001C49.7054 117.51 50.344 111.972 50.344 111.972L59.7104 78.743L61.2005 99.4045C61.2005 99.4045 59.7104 104.943 60.1361 106.434C60.5619 107.925 57.1559 118.575 58.646 119.64C60.1361 120.705 64.3935 121.131 64.6064 120.279C64.8193 119.427 65.0322 114.102 65.0322 114.102C65.0322 114.102 67.1609 109.416 67.5866 107.925C68.0124 106.434 68.4381 98.1265 68.4381 98.1265L72.2698 73.6308C72.2698 73.6308 73.1213 67.0277 70.9925 65.7496L70.1411 61.9155L52.047 61.4895Z" fill="#2F2E41"/>
<path d="M43.1064 118.788L42.255 123.048C42.255 123.048 37.7847 130.077 42.0421 130.077C46.2995 130.077 46.7253 127.947 46.7253 127.947V126.03C46.7253 126.03 48.854 124.965 48.854 124.752C48.854 124.539 48.2154 119.427 48.2154 119.427L43.1064 118.788Z" fill="#2F2E41"/>
<path d="M63.9678 118.788L64.8193 123.048C64.8193 123.048 69.2896 130.077 65.0322 130.077C60.7747 130.077 60.349 127.947 60.349 127.947V126.03C60.349 126.03 58.2203 124.965 58.2203 124.752C58.2203 124.539 58.8589 119.427 58.8589 119.427L63.9678 118.788Z" fill="#2F2E41"/>
<path d="M64.8626 31.8059C67.9644 31.8059 70.4788 29.2898 70.4788 26.1861C70.4788 23.0824 67.9644 20.5663 64.8626 20.5663C61.7608 20.5663 59.2464 23.0824 59.2464 26.1861C59.2464 29.2898 61.7608 31.8059 64.8626 31.8059Z" fill="#FFCECE"/>
<path d="M62.9035 41.0409C62.9035 41.0409 59.7104 35.7158 59.9233 34.4378C60.0543 33.7056 60.0508 32.9556 59.9131 32.2247L58.0074 33.3727L50.1312 36.9938L53.3243 47.6441C53.3243 47.6441 52.4728 49.9872 52.4728 51.6912C52.4728 53.3953 52.8985 55.3123 52.4728 55.9513C52.047 56.5903 51.8342 57.6554 52.2599 58.5074C52.514 59.0372 52.5888 59.6354 52.4728 60.2114C52.4728 60.2114 49.4926 61.9155 51.1956 62.3415C52.3174 62.589 53.4796 62.589 54.6015 62.3415C54.6015 62.3415 54.8144 61.7025 56.5173 62.5545C58.2203 63.4065 67.1609 63.6195 67.1609 63.6195C67.1609 63.6195 72.9084 63.8325 72.6956 62.9805C72.4827 62.1285 73.7599 52.1172 73.7599 52.1172L76.7401 38.0589L69.9282 33.7987L67.728 31.8551L67.1609 34.8638L62.9035 41.0409Z" fill="#D0CDE1"/>
<path d="M51.6213 37.2068H50.1312C50.1312 37.2068 42.5743 46.2596 44.703 47.7506C46.8317 49.2416 54.1757 50.4132 54.1757 50.4132C54.1757 50.4132 53.5371 37.2068 51.6213 37.2068Z" fill="#D0CDE1"/>
<path d="M74.8243 38.0589H76.7401C76.7401 38.0589 81.849 49.9872 80.146 50.4132C78.4431 50.8392 72.2698 52.1173 72.2698 51.4782C72.2698 50.8392 74.8243 38.0589 74.8243 38.0589Z" fill="#D0CDE1"/>
<path d="M59.2888 26.156C59.2888 26.156 58.6795 25.2414 58.9138 24.2565C59.0539 23.6973 59.1092 23.1202 59.0779 22.5445C59.3401 21.6913 59.6692 20.8601 60.0622 20.0587C60.5544 19.1675 60.32 18.7923 61.8668 18.5109C63.4136 18.2295 62.7809 16.2127 66.8588 18.3936C66.9964 18.5859 67.1878 18.733 67.4089 18.8165C67.6299 18.8999 67.8708 18.916 68.101 18.8627C68.9447 18.6985 69.2493 19.8711 69.2493 19.8711C69.2493 19.8711 69.8118 19.5428 70.0227 20.0118C70.2337 20.4808 71.7376 19.7303 71.7376 22.8962C71.7376 26.0621 70.0262 28.8901 70.0262 28.8901C70.0262 28.8901 70.1516 23.5647 67.3627 23.0253C64.5738 22.4859 61.5739 20.9147 60.8474 22.9315C60.4552 24.0634 59.9321 25.1456 59.2888 26.156Z" fill="#2F2E41"/>
<path d="M144.452 102.201C136.079 102.208 127.87 99.8762 120.749 95.4681L120.568 95.356L120.68 95.175L144.333 56.8699H189.542V57.083C189.542 81.9614 169.315 102.201 144.452 102.201ZM121.154 95.2174C128.167 99.5124 136.23 101.782 144.452 101.775C169.009 101.775 189.001 81.8424 189.116 57.296H144.571L121.154 95.2174Z" fill="#2B3653"/>
<path d="M90.2574 54.9899C90.2538 62.646 92.2078 70.1757 95.9336 76.8627C99.6595 83.5498 105.033 89.1718 111.544 93.1939L135.134 54.9899L96.1644 32.7073C92.2822 39.4902 90.2454 47.1733 90.2574 54.9899Z" fill="#F2F2F2"/>
<path d="M115.226 91.9649L115.044 91.8528C105.101 85.7007 97.9326 75.9262 95.0502 64.5892C92.1677 53.2522 93.7963 41.2382 99.5927 31.0792L99.6984 30.8946L139.044 53.3921L115.226 91.9649ZM99.8569 31.4759C94.1996 41.5022 92.6257 53.3258 95.4629 64.4843C98.3001 75.6428 105.33 85.276 115.088 91.3779L138.451 53.5433L99.8569 31.4759Z" fill="#2B3653"/>
<path d="M157.454 4.28427L147.78 48.1399H192.657C192.657 26.6634 177.588 8.71147 157.454 4.28427Z" fill="#F1D296"/>
<path d="M189.542 50.8265H144.187L153.964 6.50415L154.172 6.54981C164.2 8.76768 173.172 14.3437 179.603 22.356C186.034 30.3682 189.541 40.3368 189.542 50.6135V50.8265ZM144.717 50.4005H189.115C189.016 29.7325 174.412 11.5396 154.288 7.01201L144.717 50.4005Z" fill="#2B3653"/>
<path d="M138.177 3.50274e-06C130.264 -0.00312383 122.492 2.08792 115.648 6.061C108.804 10.0341 103.132 15.7479 99.2069 22.6226L138.177 44.9052L147.851 1.04959C144.674 0.35107 141.43 -0.000843889 138.177 3.50274e-06Z" fill="#F2F2F2"/>
<path d="M140.224 48.849L100.818 26.317L100.924 26.132C105.701 17.7813 113.019 11.1753 121.81 7.2765C130.601 3.37769 140.407 2.3898 149.799 4.45678L150.007 4.50254L140.224 48.849ZM101.4 26.1589L139.933 48.1919L149.499 4.82757C140.258 2.83975 130.624 3.83345 121.982 7.66597C113.341 11.4985 106.135 17.9727 101.4 26.1589Z" fill="#2B3653"/>
<path d="M163.432 35.9181L163.123 35.6258L186.48 10.823H205.492V11.249H186.664L163.432 35.9181Z" fill="#2B3653"/>
<path d="M215 14.0804H192.562V14.8415H215V14.0804Z" fill="#F1D296"/>
<path d="M215 17.3152H192.562V18.0763H215V17.3152Z" fill="#F1D296"/>
<path d="M215 20.5498H192.562V21.3109H215V20.5498Z" fill="#F1D296"/>
<path d="M207.337 108.229H184.898V108.99H207.337V108.229Z" fill="#F1D296"/>
<path d="M207.337 111.464H184.898V112.225H207.337V111.464Z" fill="#F1D296"/>
<path d="M207.337 114.698H184.898V115.459H207.337V114.698Z" fill="#F1D296"/>
<path d="M197.757 104.41H175.294L175.231 104.318L157.775 78.9704L158.126 78.7286L175.518 103.984H197.757V104.41Z" fill="#2B3653"/>
<path d="M12.1681 119.848C11.459 126.065 15.2791 131.608 15.2791 131.608C15.2791 131.608 20.2489 127.069 20.958 120.851C21.6671 114.634 17.847 109.091 17.847 109.091C17.847 109.091 12.8772 113.63 12.1681 119.848Z" fill="#2F2E41"/>
<path d="M14.8773 119.527C17.4333 125.238 15.4682 131.677 15.4682 131.677C15.4682 131.677 9.35893 128.856 6.80292 123.145C4.24691 117.433 6.21203 110.994 6.21203 110.994C6.21203 110.994 12.3213 113.815 14.8773 119.527Z" fill="#F1D296"/>
</g>
<defs>
<clipPath id="clip0_20_76">
<rect width="215" height="137" fill="white"/>
</clipPath>
</defs>
</svg>
