<svg width="15" height="15" viewBox="0 0 15 15" fill="none" xmlns="http://www.w3.org/2000/svg">
<path d="M7.5 5.54731C6.42481 5.54731 5.54736 6.42475 5.54736 7.49995C5.54736 8.57514 6.42481 9.45258 7.5 9.45258C8.5752 9.45258 9.45264 8.57514 9.45264 7.49995C9.45264 6.42475 8.5752 5.54731 7.5 5.54731ZM13.3564 7.49995C13.3564 6.69135 13.3638 5.89008 13.3184 5.08295C13.273 4.14545 13.0591 3.31342 12.3735 2.62788C11.6865 1.94087 10.856 1.72846 9.91846 1.68305C9.10986 1.63764 8.30859 1.64497 7.50147 1.64497C6.69287 1.64497 5.8916 1.63764 5.08447 1.68305C4.14697 1.72846 3.31494 1.94233 2.6294 2.62788C1.94238 3.31489 1.72998 4.14545 1.68457 5.08295C1.63916 5.89155 1.64649 6.69282 1.64649 7.49995C1.64649 8.30708 1.63916 9.10981 1.68457 9.91694C1.72998 10.8544 1.94385 11.6865 2.6294 12.372C3.31641 13.059 4.14697 13.2714 5.08447 13.3168C5.89307 13.3622 6.69434 13.3549 7.50147 13.3549C8.31006 13.3549 9.11133 13.3622 9.91846 13.3168C10.856 13.2714 11.688 13.0576 12.3735 12.372C13.0605 11.685 13.273 10.8544 13.3184 9.91694C13.3652 9.10981 13.3564 8.30854 13.3564 7.49995ZM7.5 10.5043C5.8374 10.5043 4.49561 9.16254 4.49561 7.49995C4.49561 5.83735 5.8374 4.49555 7.5 4.49555C9.1626 4.49555 10.5044 5.83735 10.5044 7.49995C10.5044 9.16254 9.1626 10.5043 7.5 10.5043ZM10.6274 5.07417C10.2393 5.07417 9.92578 4.76069 9.92578 4.37251C9.92578 3.98432 10.2393 3.67085 10.6274 3.67085C11.0156 3.67085 11.3291 3.98432 11.3291 4.37251C11.3292 4.46468 11.3111 4.55597 11.2759 4.64116C11.2407 4.72634 11.189 4.80373 11.1238 4.86891C11.0587 4.93409 10.9813 4.98577 10.8961 5.02099C10.8109 5.05621 10.7196 5.07428 10.6274 5.07417Z" fill="#F4F4F4"/>
</svg>
