<svg width="75" height="75" viewBox="0 0 75 75" fill="none" xmlns="http://www.w3.org/2000/svg">
<g clip-path="url(#clip0_20_176)">
<path d="M74.1938 13.4414V68.7107C74.1938 71.5999 72.0584 73.7352 69.1694 73.7352H66.6571V41.0761H59.1204V73.7353H54.0959V31.0271H46.5592V73.7352H41.5346V51.125H33.9979V73.7352H28.9735V41.0761H21.4368V73.7353H16.4124V61.174H8.87563V73.7352H6.36334C3.47422 73.7352 1.33891 71.4742 1.33891 68.7107V13.4414H74.1938Z" fill="white"/>
<path d="M21.4368 73.7352H28.9735V41.0762H21.4368V73.7352ZM59.1204 73.7352H66.6571V41.0762H59.1204V73.7352ZM46.5591 73.7352H54.0958V31.0272H46.5591V73.7352Z" fill="#E5E5E5"/>
<path d="M8.87548 73.7353H16.4122V61.1741H8.87548V73.7353ZM33.9979 73.7353H41.5346V51.1251H33.9979V73.7353Z" fill="#FFD991"/>
<path d="M74.1938 5.9048V13.4415H1.33875V5.9048C1.33875 3.14139 3.59977 0.880371 6.36318 0.880371H69.1692C71.9328 0.880371 74.1938 3.14139 74.1938 5.9048Z" fill="#3F3D56"/>
<path d="M25.2051 5.90472C25.9588 5.90472 26.4612 6.53283 26.4612 7.16079C26.4612 7.78876 25.9588 8.41687 25.2051 8.41687C24.577 8.41687 23.9491 7.78876 23.9491 7.16079C23.9491 6.53283 24.577 5.90472 25.2051 5.90472Z" fill="#50DD8E"/>
<path d="M17.6684 5.90472C18.2965 5.90472 18.9245 6.53283 18.9245 7.16079C18.9245 7.78876 18.2964 8.41687 17.6684 8.41687C17.0403 8.41687 16.4123 7.78876 16.4123 7.16079C16.4123 6.53283 17.0403 5.90472 17.6684 5.90472Z" fill="#FFD991"/>
<path d="M10.1317 5.90472C10.7598 5.90472 11.3878 6.53283 11.3878 7.16079C11.3878 7.78876 10.7597 8.41687 10.1317 8.41687C9.50374 8.41687 8.87563 7.78876 8.87563 7.16079C8.87563 6.53283 9.50359 5.90472 10.1317 5.90472Z" fill="#FF7474"/>
<path d="M66.6564 74.3633H6.3626C3.09664 74.3633 0.710062 71.9768 0.710062 68.7108V18.466C0.710062 18.0892 0.961335 17.8379 1.33817 17.8379C1.71501 17.8379 1.96628 18.0892 1.96628 18.466V68.7108C1.96628 71.2231 3.85046 73.1073 6.36275 73.1073H66.0283V41.7042H59.7476V68.7108C59.7476 69.0876 59.4963 69.3389 59.1195 69.3389C58.7427 69.3389 58.4914 69.0876 58.4914 68.7108V41.0762C58.4914 40.6994 58.7427 40.4481 59.1195 40.4481H66.6562C67.0331 40.4481 67.2843 40.6994 67.2843 41.0762V73.7354C67.2843 74.1121 67.0332 74.3633 66.6564 74.3633ZM71.5552 73.7352C71.304 73.7352 71.0528 73.6097 71.0528 73.3584C70.9273 73.1071 71.0528 72.7303 71.3041 72.4791C72.6859 71.7255 73.5651 70.2181 73.5651 68.5852V5.77919C73.5651 3.39261 71.5554 1.38272 69.1686 1.38272H6.3626C3.97588 1.38272 1.96613 3.39261 1.96613 5.77919V12.6878H69.1685C69.5453 12.6878 69.7966 12.9391 69.7966 13.3159C69.7966 13.6927 69.5453 13.944 69.1685 13.944H1.33802C0.961188 13.944 0.709915 13.6927 0.709915 13.3159V5.77919C0.709915 2.63894 3.2222 0.126648 6.36245 0.126648H69.1685C72.3088 0.126648 74.821 2.63894 74.821 5.77919V68.5852C74.821 70.7207 73.6905 72.6049 71.9319 73.6097C71.8064 73.7352 71.6808 73.7352 71.5552 73.7352ZM54.0951 69.3389C53.7182 69.3389 53.4669 69.0876 53.4669 68.7108V31.6553H47.1865V68.7108C47.1865 69.0876 46.9352 69.3389 46.5583 69.3389C46.1815 69.3389 45.9302 69.0876 45.9302 68.7108V31.0272C45.9302 30.6504 46.1815 30.3991 46.5583 30.3991H54.0951C54.4719 30.3991 54.7232 30.6504 54.7232 31.0272V68.7108C54.7232 69.0876 54.4719 69.3389 54.0951 69.3389ZM41.5339 69.3389C41.1571 69.3389 40.9058 69.0876 40.9058 68.7108V51.7532H34.6252V68.7108C34.6252 69.0876 34.3739 69.3389 33.997 69.3389C33.6202 69.3389 33.3689 69.0876 33.3689 68.7108V51.1251C33.3689 50.7482 33.6202 50.497 33.997 50.497H41.5338C41.9106 50.497 42.1619 50.7482 42.1619 51.1251V68.7108C42.162 69.0876 41.9107 69.3389 41.5339 69.3389ZM28.9728 69.3389C28.5959 69.3389 28.3447 69.0876 28.3447 68.7108V41.7042H22.064V68.7108C22.064 69.0876 21.8127 69.3389 21.4359 69.3389C21.0591 69.3389 20.8078 69.0876 20.8078 68.7108V41.0762C20.8078 40.6994 21.0591 40.4481 21.4359 40.4481H28.9726C29.3494 40.4481 29.6007 40.6994 29.6007 41.0762V68.7108C29.6007 69.0876 29.3496 69.3389 28.9728 69.3389ZM16.4115 69.3389C16.0346 69.3389 15.7834 69.0876 15.7834 68.7108V61.8022H9.50285V68.7108C9.50285 69.0876 9.25158 69.3389 8.87474 69.3389C8.49791 69.3389 8.24663 69.0876 8.24663 68.7108V61.1741C8.24663 60.7972 8.49791 60.546 8.87474 60.546H16.4115C16.7883 60.546 17.0396 60.7972 17.0396 61.1741V68.7108C17.0396 69.0876 16.7883 69.3389 16.4115 69.3389ZM66.6564 21.6063H61.6319C61.2551 21.6063 61.0038 21.355 61.0038 20.9782C61.0038 20.6014 61.2551 20.3501 61.6319 20.3501H66.6564C67.0332 20.3501 67.2845 20.6014 67.2845 20.9782C67.2843 21.355 67.0332 21.6063 66.6564 21.6063ZM56.6073 21.6063H51.5829C51.2061 21.6063 50.9548 21.355 50.9548 20.9782C50.9548 20.6014 51.2061 20.3501 51.5829 20.3501H56.6073C56.9842 20.3501 57.2355 20.6014 57.2355 20.9782C57.2355 21.355 56.9842 21.6063 56.6073 21.6063ZM46.5583 21.6063H41.5339C41.1571 21.6063 40.9058 21.355 40.9058 20.9782C40.9058 20.6014 41.1571 20.3501 41.5339 20.3501H46.5583C46.9352 20.3501 47.1865 20.6014 47.1865 20.9782C47.1865 21.355 46.9352 21.6063 46.5583 21.6063ZM18.9238 21.6063H8.87474C8.49791 21.6063 8.24663 21.355 8.24663 20.9782C8.24663 20.6014 8.49791 20.3501 8.87474 20.3501H18.9238C19.3006 20.3501 19.5519 20.6014 19.5519 20.9782C19.5519 21.355 19.3006 21.6063 18.9238 21.6063ZM25.2044 9.04515C24.1995 9.04515 23.3202 8.16591 23.3202 7.16097C23.3202 6.15602 24.1995 5.27679 25.2044 5.27679C26.2093 5.27679 27.0886 6.15602 27.0886 7.16097C27.0886 8.16591 26.2092 9.04515 25.2044 9.04515ZM25.2044 6.53286C24.8276 6.53286 24.5763 6.78413 24.5763 7.16097C24.5763 7.5378 24.8276 7.78908 25.2044 7.78908C25.5812 7.78908 25.8325 7.5378 25.8325 7.16097C25.8324 6.78413 25.5812 6.53286 25.2044 6.53286ZM17.6677 9.04515C16.6627 9.04515 15.7835 8.16591 15.7835 7.16097C15.7835 6.15602 16.6627 5.27679 17.6677 5.27679C18.6726 5.27679 19.5519 6.15602 19.5519 7.16097C19.5519 8.16591 18.6725 9.04515 17.6677 9.04515ZM17.6677 6.53286C17.2908 6.53286 17.0396 6.78413 17.0396 7.16097C17.0396 7.5378 17.2908 7.78908 17.6677 7.78908C18.0445 7.78908 18.2958 7.5378 18.2958 7.16097C18.2956 6.78413 18.0445 6.53286 17.6677 6.53286ZM10.131 9.04515C9.12602 9.04515 8.24678 8.16591 8.24678 7.16097C8.24678 6.15602 9.12602 5.27679 10.131 5.27679C11.1359 5.27679 12.0151 6.15602 12.0151 7.16097C12.0151 8.16591 11.1358 9.04515 10.131 9.04515ZM10.131 6.53286C9.75413 6.53286 9.50285 6.78413 9.50285 7.16097C9.50285 7.5378 9.75413 7.78908 10.131 7.78908C10.5078 7.78908 10.7591 7.5378 10.7591 7.16097C10.7589 6.78413 10.5078 6.53286 10.131 6.53286Z" fill="#51565F"/>
</g>
<defs>
<clipPath id="clip0_20_176">
<rect width="74.2367" height="74.2367" fill="white" transform="translate(0.647949 0.126648)"/>
</clipPath>
</defs>
</svg>
