<svg width="75" height="75" viewBox="0 0 75 75" fill="none" xmlns="http://www.w3.org/2000/svg">
<g clip-path="url(#clip0_20_209)">
<path d="M73.7342 13.2753V68.6383C73.7342 71.5323 71.5951 73.6712 68.7012 73.6712H58.6352L54.8604 68.6383C56.2446 67.0026 57.377 64.6118 57.8802 62.7245C59.8934 62.347 61.9067 61.8438 62.4099 61.7178C63.2906 61.5921 63.6681 60.7112 63.6681 59.8305V54.7975C63.6681 53.9168 63.2906 53.1618 62.4099 52.9101C61.9067 52.7844 59.8934 52.4069 57.8802 51.9035C57.377 50.0161 56.622 48.1287 55.6154 46.4931C56.7478 44.7316 57.8802 42.97 58.1319 42.5926C58.6352 41.8376 58.3836 41.0827 57.6287 40.3277C56.9995 39.6985 54.7347 37.4337 54.1056 36.8047C53.4766 36.1756 52.7215 35.798 51.8408 36.3014C51.4633 36.5531 49.7017 37.6855 47.9403 38.818C46.3046 37.8113 44.4172 37.0564 42.4039 36.5531C42.0265 34.54 41.5232 32.5267 41.3973 32.0234C41.2715 31.1427 40.3906 30.7652 39.5099 30.7652H34.4768C33.5961 30.7652 32.8411 31.1427 32.5894 32.0234C32.4637 32.5267 32.0862 34.54 31.5828 36.5531C29.5696 37.0564 27.8081 37.8113 26.0465 38.818C24.2849 37.6855 22.5234 36.5531 22.1459 36.3014C21.391 35.7982 20.636 36.0497 19.8811 36.8047C19.1261 37.5596 16.9871 39.6987 16.358 40.3277C15.729 40.9567 15.3514 41.7118 15.8548 42.5926C16.1065 42.97 17.2389 44.7316 18.3713 46.4931C17.3647 48.1287 16.6097 50.0161 16.1065 51.9035C14.0933 52.281 12.0801 52.7842 11.5768 52.9101C10.6961 53.0359 10.3186 53.9168 10.3186 54.7975V59.8305C10.3186 60.7112 10.6961 61.4661 11.5768 61.7178C12.0801 61.8436 14.0933 62.2211 16.1065 62.7245C16.6097 64.6118 17.7422 67.1284 19.1263 68.6383L15.3515 73.6712H5.28551C2.39149 73.6712 0.252571 71.4064 0.252571 68.6383V13.2753H73.7342ZM37.2451 45.9898C43.5363 45.9898 48.5693 51.0228 48.5693 57.3141C48.5693 63.6053 43.5363 68.6383 37.2451 68.6383C30.9538 68.6383 25.9208 63.6053 25.9208 57.3141C25.9208 51.0228 30.9538 45.9898 37.2451 45.9898Z" fill="white"/>
<path d="M37.245 53.5393C39.3841 53.5393 41.0198 55.175 41.0198 57.3141C41.0198 59.4531 39.3841 61.0888 37.245 61.0888C35.106 61.0888 33.4703 59.4531 33.4703 57.3141C33.4703 55.175 35.106 53.5393 37.245 53.5393Z" fill="#FFD991"/>
<path d="M48.5693 57.314C48.5693 51.0227 43.5363 45.9897 37.245 45.9897C30.9537 45.9897 25.9208 51.0227 25.9208 57.314C25.9208 63.6053 30.9537 68.6382 37.245 68.6382C43.5363 68.6382 48.5693 63.6053 48.5693 57.314ZM63.6682 54.7974V59.8304C63.6682 60.837 63.2907 61.592 62.41 61.7177C62.0326 61.8435 59.8935 62.221 57.8803 62.7244C57.3771 64.6118 56.2447 67.0024 54.8605 68.6382L58.6353 73.6711H15.8548L19.6295 68.6382C18.2454 67.0025 17.113 64.6118 16.6097 62.7244C14.5966 62.3469 12.5833 61.8437 12.08 61.7177C11.1993 61.466 10.8218 60.7111 10.8218 59.8304V54.7974C10.8218 53.7908 11.1993 53.0358 12.08 52.91C12.4575 52.7843 14.5966 52.4068 16.6097 51.9034C17.113 50.016 17.8679 48.1287 18.8746 46.493C17.7421 44.7314 16.6097 42.9699 16.358 42.5925C15.8548 41.8375 16.1063 40.9568 16.8613 40.3276C17.4904 39.6985 19.7553 37.4336 20.3843 36.8046C21.0135 36.1754 21.8942 35.7979 22.6492 36.3013C23.0266 36.553 24.7882 37.6855 26.5497 38.8179C28.1853 37.8112 30.0727 37.0563 32.086 36.553C32.4635 34.5399 32.9667 32.5266 33.0927 32.0233C33.3444 31.1426 34.0993 30.7651 34.98 30.7651H40.013C41.0196 30.7651 41.7746 31.1426 41.9003 32.0233C42.0261 32.4008 42.4036 34.5399 42.907 36.553C44.9201 37.0563 46.6817 37.8112 48.4433 38.8179C50.2049 37.6855 51.9664 36.553 52.3438 36.3013C53.0988 35.7981 53.9795 36.0496 54.6087 36.8046C55.2379 37.4338 57.5027 39.6986 58.1317 40.3276C58.7608 40.9567 59.1384 41.8375 58.635 42.5925C58.3833 42.9699 57.2509 44.7315 56.1184 46.493C57.1251 48.1287 57.88 50.016 58.3833 51.9034C60.3964 52.2809 62.4097 52.7841 62.913 52.91C63.2908 53.1617 63.6682 53.9167 63.6682 54.7974Z" fill="#E5E5E5"/>
<path d="M73.7342 5.72581V13.2753H0.755829V5.72581C0.755829 2.95772 3.02068 0.692871 5.78877 0.692871H68.7012C71.4693 0.692871 73.7342 2.95772 73.7342 5.72581Z" fill="#3F3D56"/>
<path d="M24.6625 5.72577C25.4175 5.72577 25.9207 6.35494 25.9207 6.98397C25.9207 7.61299 25.4175 8.24217 24.6625 8.24217C24.0333 8.24217 23.4043 7.61299 23.4043 6.98397C23.4043 6.35494 24.0335 5.72577 24.6625 5.72577Z" fill="#50DD8E"/>
<path d="M17.113 5.72577C17.7422 5.72577 18.3712 6.35494 18.3712 6.98397C18.3712 7.61299 17.742 8.24217 17.113 8.24217C16.4838 8.24217 15.8548 7.61299 15.8548 6.98397C15.8548 6.35494 16.484 5.72577 17.113 5.72577Z" fill="#FFD991"/>
<path d="M9.5635 5.72577C10.1927 5.72577 10.8217 6.35494 10.8217 6.98397C10.8217 7.61299 10.1927 8.24231 9.5635 8.24231C8.93432 8.24231 8.3053 7.61314 8.3053 6.98412C8.3053 6.35509 8.93447 5.72577 9.5635 5.72577Z" fill="#FF7474"/>
<path d="M68.7012 74.2997H58.6352C58.3835 74.2997 58.2577 74.1739 58.1319 74.048L54.3572 69.015C54.2314 68.7633 54.2314 68.3858 54.3572 68.2601C55.6154 66.876 56.7478 64.6111 57.2512 62.598C57.2512 62.3463 57.5029 62.2205 57.7544 62.0947C59.7676 61.7172 61.7809 61.214 62.2841 61.0881C62.4099 61.0881 63.0391 60.9623 63.0391 59.8299C63.0391 58.8232 63.0391 55.6776 63.0391 54.7969C63.0391 53.6645 62.5358 53.5387 62.2841 53.5387L57.7544 52.5321C57.5027 52.5321 57.377 52.2804 57.2512 52.0288C56.7479 50.1415 55.993 48.3799 55.1121 46.7442C54.9863 46.4925 54.9863 46.2409 55.1121 46.115C56.2445 44.3534 57.377 42.592 57.6287 42.2145C57.7544 42.0887 58.0061 41.5853 57.2512 40.8304L53.728 37.3072C52.973 36.5522 52.4698 36.8039 52.3439 36.9297L48.4434 39.4462C48.1917 39.572 47.9401 39.572 47.8142 39.4462C46.1785 38.4396 44.4169 37.6847 42.5295 37.3072C42.2778 37.3072 42.1521 37.0555 42.0263 36.8039C41.6488 34.7908 41.1456 32.7775 41.0196 32.2742C41.0196 32.1485 40.8939 31.5193 39.7614 31.5193H34.7285C33.5961 31.5193 33.4703 32.0225 33.4703 32.2742L32.4637 36.8039C32.4637 37.0556 32.212 37.1814 31.9604 37.3072C30.073 37.8104 28.3114 38.5654 26.6758 39.4462C26.4241 39.572 26.1725 39.572 26.0466 39.4462C24.285 38.3138 22.5236 37.1814 22.1461 36.9297C22.0203 36.8039 21.5169 36.5522 20.762 37.3072L17.2389 40.8302C16.484 41.5852 16.7357 42.0884 16.8614 42.2143L19.378 46.1149C19.5038 46.3666 19.5038 46.6181 19.378 46.744C18.3713 48.3797 17.6164 50.1413 17.2389 52.0287C17.2389 52.2804 16.9872 52.4062 16.7357 52.5319C14.7225 52.9094 12.7092 53.4127 12.206 53.5386C12.0802 53.5386 11.451 53.6644 11.451 54.7968V59.8297C11.451 60.9621 11.9543 61.0879 12.206 61.0879L16.7357 62.0946C16.9874 62.0946 17.1131 62.3463 17.2389 62.5978C17.7422 64.3594 18.7488 66.75 20.1329 68.2599C20.3846 68.5116 20.3846 68.8891 20.1329 69.1407C19.8812 69.3924 19.5038 69.3924 19.2522 69.1407C17.994 67.7565 16.7357 65.4917 16.1066 63.3528L11.9544 62.472C10.822 62.2203 10.1928 61.3396 10.1928 59.9555V54.9226C10.1928 53.5384 10.822 52.6577 11.9544 52.406C12.3319 52.2802 14.2193 51.9028 16.1066 51.5253C16.6099 49.7637 17.2391 48.128 18.1198 46.6181L15.8549 43.0951C15.2258 42.0884 15.4775 41.0819 16.3582 40.0753L19.8812 36.5522C20.8879 35.5456 21.8944 35.4198 22.901 36.049C23.2785 36.3007 24.7884 37.3072 26.4241 38.3138C27.934 37.4331 29.5696 36.8039 31.3312 36.3007L32.212 32.1485C32.4637 31.016 33.3444 30.3869 34.7285 30.3869H39.7614C41.1456 30.3869 42.0263 31.016 42.278 32.1485C42.4038 32.5259 42.7812 34.4133 43.1587 36.3007C44.9203 36.8039 46.556 37.4331 48.0659 38.3138L51.5889 36.049C52.5956 35.4198 53.6021 35.6715 54.6087 36.5522L58.1318 40.0753C59.1384 41.0819 59.2642 42.0884 58.635 43.0951C58.3833 43.4725 57.3768 44.9824 56.3702 46.6181C57.2509 48.128 57.8801 49.7637 58.3833 51.5253L62.5355 52.406C63.668 52.6577 64.2971 53.5384 64.2971 54.9226C64.2971 55.8033 64.2971 59.0748 64.2971 59.9555C64.2971 61.3396 63.668 62.2203 62.5355 62.472C62.1581 62.5978 60.2707 62.9753 58.3833 63.3528C57.8801 64.9884 56.9992 67.1275 55.6152 68.7632L58.8867 73.1671H68.701C71.2176 73.1671 73.105 71.2797 73.105 68.7632V5.85102C73.105 3.4604 71.0918 1.4471 68.701 1.4471H5.78876C3.39813 1.4471 1.38484 3.46025 1.38484 5.85102V12.7713H68.701C69.0785 12.7713 69.3302 13.023 69.3302 13.4005C69.3302 13.778 69.0785 14.0297 68.701 14.0297H0.755813C0.378339 14.0295 0.12664 13.7778 0.12664 13.4005V5.85102C0.12664 2.70545 2.64319 0.188904 5.78876 0.188904H68.7012C71.8468 0.188904 74.3633 2.70545 74.3633 5.85102V68.7635C74.3633 71.909 71.9727 74.2997 68.7012 74.2997ZM52.344 74.2997H5.78876C2.51726 74.2997 0.12664 71.909 0.12664 68.6376V18.3077C0.12664 17.9302 0.378339 17.6785 0.755813 17.6785C1.13329 17.6785 1.38499 17.9302 1.38499 18.3077V68.6376C1.38499 71.1541 3.27236 73.0415 5.7889 73.0415H52.344C52.7215 73.0415 52.9732 73.2932 52.9732 73.6706C52.9732 74.0481 52.7215 74.2997 52.344 74.2997ZM37.245 69.2667C30.7022 69.2667 25.2916 63.8563 25.2916 57.3133C25.2916 50.7703 30.7021 45.3599 37.245 45.3599C43.788 45.3599 49.1983 50.7705 49.1983 57.3133C49.1983 63.8562 43.7879 69.2667 37.245 69.2667ZM37.245 46.6183C31.3312 46.6183 26.55 51.3997 26.55 57.3133C26.55 63.227 31.3314 68.0084 37.245 68.0084C43.1587 68.0084 47.9401 63.227 47.9401 57.3133C47.9401 51.3997 43.1587 46.6183 37.245 46.6183ZM37.245 61.7172C34.8544 61.7172 32.8411 59.7041 32.8411 57.3133C32.8411 54.9226 34.8543 52.9094 37.245 52.9094C39.6358 52.9094 41.6488 54.9227 41.6488 57.3133C41.6488 59.7039 39.6357 61.7172 37.245 61.7172ZM37.245 54.1677C35.4835 54.1677 34.0995 55.5519 34.0995 57.3133C34.0995 59.0749 35.4836 60.4589 37.245 60.4589C39.0065 60.4589 40.3906 59.0748 40.3906 57.3133C40.3906 55.5519 39.0065 54.1677 37.245 54.1677ZM66.1847 21.4532H61.1517C60.7742 21.4532 60.5225 21.2015 60.5225 20.8241C60.5225 20.4466 60.7742 20.1949 61.1517 20.1949H66.1847C66.5621 20.1949 66.8138 20.4466 66.8138 20.8241C66.8138 21.2015 66.5621 21.4532 66.1847 21.4532ZM56.1188 21.4532H51.0857C50.7082 21.4532 50.4565 21.2015 50.4565 20.8241C50.4565 20.4466 50.7082 20.1949 51.0857 20.1949H56.1186C56.4961 20.1949 56.7478 20.4466 56.7478 20.8241C56.7478 21.2015 56.4962 21.4532 56.1188 21.4532ZM46.0527 21.4532H41.0198C40.6423 21.4532 40.3906 21.2015 40.3906 20.8241C40.3906 20.4466 40.6423 20.1949 41.0198 20.1949H46.0527C46.4302 20.1949 46.6819 20.4466 46.6819 20.8241C46.6819 21.2015 46.4302 21.4532 46.0527 21.4532ZM18.3713 21.4532H8.3053C7.92783 21.4532 7.67613 21.2015 7.67613 20.8241C7.67613 20.4466 7.92783 20.1949 8.3053 20.1949H18.3713C18.7488 20.1949 19.0005 20.4466 19.0005 20.8241C19.0005 21.2015 18.7487 21.4532 18.3713 21.4532ZM24.6625 8.87082C23.6558 8.87082 22.7751 7.99009 22.7751 6.98344C22.7751 5.9768 23.6558 5.09607 24.6625 5.09607C25.6691 5.09607 26.5498 5.9768 26.5498 6.98344C26.5498 7.99009 25.6691 8.87082 24.6625 8.87082ZM24.6625 6.35427C24.285 6.35427 24.0333 6.60597 24.0333 6.98344C24.0333 7.36092 24.285 7.61262 24.6625 7.61262C25.0399 7.61262 25.2916 7.36092 25.2916 6.98344C25.2916 6.60597 25.0399 6.35427 24.6625 6.35427ZM17.113 8.87082C16.1063 8.87082 15.2256 7.99009 15.2256 6.98344C15.2256 5.9768 16.1063 5.09607 17.113 5.09607C18.1196 5.09607 19.0004 5.9768 19.0004 6.98344C19.0004 7.99009 18.1196 8.87082 17.113 8.87082ZM17.113 6.35427C16.7355 6.35427 16.4838 6.60597 16.4838 6.98344C16.4838 7.36092 16.7355 7.61262 17.113 7.61262C17.4905 7.61262 17.7422 7.36092 17.7422 6.98344C17.7422 6.60597 17.4905 6.35427 17.113 6.35427ZM9.5635 8.87082C8.55685 8.87082 7.67613 7.99009 7.67613 6.98344C7.67613 5.9768 8.55685 5.09607 9.5635 5.09607C10.5701 5.09607 11.4509 5.9768 11.4509 6.98344C11.4509 7.99009 10.5701 8.87082 9.5635 8.87082ZM9.5635 6.35427C9.18602 6.35427 8.93433 6.60597 8.93433 6.98344C8.93433 7.36092 9.18602 7.61262 9.5635 7.61262C9.94097 7.61262 10.1927 7.36092 10.1927 6.98344C10.1927 6.60597 9.94097 6.35427 9.5635 6.35427Z" fill="#51565F"/>
</g>
<defs>
<clipPath id="clip0_20_209">
<rect width="74.2367" height="74.2367" fill="white" transform="translate(0.126633 0.126648)"/>
</clipPath>
</defs>
</svg>
