<svg width="76" height="75" viewBox="0 0 76 75" fill="none" xmlns="http://www.w3.org/2000/svg">
<g clip-path="url(#clip0_20_139)">
<path d="M6.41032 53.777H1.36722L6.41032 62.6025L1.36722 71.428H13.975V56.2985V53.777H6.41032Z" fill="#E5E5E5"/>
<path d="M69.4497 53.777H61.885V56.2985V71.4279H74.4928L69.4497 62.6025L74.4928 53.777H69.4497Z" fill="#E5E5E5"/>
<path d="M61.8849 71.428V73.9496H13.975V71.428V56.2986H61.8849V71.428Z" fill="#E5E5E5"/>
<path d="M54.3203 63.8632L52.3031 65.5022L53.1856 68.0238L50.664 66.8891L48.1424 68.0238L49.0249 65.5022L46.7554 63.8632H49.2771L50.5378 61.3416L51.7985 63.8632H54.3203ZM41.7123 63.8632L39.6951 65.5022L40.5776 68.0238L38.056 66.8891L35.5344 68.0238L36.4169 65.5022L34.1475 63.8632H36.6692L37.93 61.3416L39.1907 63.8632H41.7123ZM29.1045 63.8632L27.0873 65.5022L27.9698 68.0238L25.4482 66.8891L22.9266 68.0238L23.8091 65.5022L21.5396 63.8632H24.0613L25.322 61.3416L26.5827 63.8632H29.1045Z" fill="#FFD991"/>
<path d="M74.4928 13.4318V53.777H61.885V56.2985H13.975V53.777H1.36722V13.4318H74.4928Z" fill="white"/>
<path d="M49.277 38.6476H61.8848V31.0829H49.277V38.6476ZM13.975 38.6476H26.5828V31.0829H13.975V38.6476ZM31.6261 38.6476H44.2339V31.0829H31.6261V38.6476Z" fill="#FFD991"/>
<path d="M74.4929 5.86704V13.4318H1.36723V5.86704C1.36723 3.09336 3.63665 0.823944 6.41033 0.823944H69.4497C72.2234 0.823944 74.4929 3.09336 74.4929 5.86704Z" fill="#3F3D56"/>
<path d="M25.3221 5.86707C26.0786 5.86707 26.5829 6.49751 26.5829 7.1278C26.5829 7.7581 26.0786 8.38854 25.3221 8.38854C24.6917 8.38854 24.0614 7.7581 24.0614 7.1278C24.0614 6.49751 24.6917 5.86707 25.3221 5.86707Z" fill="#50DD8E"/>
<path d="M17.7573 5.86707C18.3878 5.86707 19.0181 6.49751 19.0181 7.1278C19.0181 7.7581 18.3876 8.38854 17.7573 8.38854C17.1269 8.38854 16.4966 7.7581 16.4966 7.1278C16.4966 6.49751 17.1269 5.86707 17.7573 5.86707Z" fill="#FFD991"/>
<path d="M10.1927 5.86707C10.8231 5.86707 11.4534 6.49751 11.4534 7.1278C11.4534 7.7581 10.8231 8.38869 10.1927 8.38869C9.56226 8.38869 8.93196 7.75824 8.93196 7.12795C8.93196 6.49766 9.56226 5.86707 10.1927 5.86707Z" fill="#FF7474"/>
<path d="M61.885 74.58H13.975C13.5968 74.58 13.3446 74.3278 13.3446 73.9495V72.0583H1.3672C1.11499 72.0583 0.988962 71.9323 0.862933 71.8061C0.736903 71.5539 0.736903 71.4279 0.862933 71.1757L5.78 62.6023L0.862933 54.0289C0.736903 53.7767 0.736903 53.6507 0.862933 53.3984C0.988962 53.1462 1.24117 53.1462 1.3672 53.1462H8.93192C9.31016 53.1462 9.56236 53.3984 9.56236 53.7767C9.56236 54.1549 9.31016 54.4071 8.93192 54.4071H2.50191L7.04074 62.3501C7.16677 62.6023 7.16677 62.7283 7.04074 62.9805L2.50191 70.9235H13.3447V53.777C13.3447 53.3987 13.5969 53.1465 13.9752 53.1465C14.3534 53.1465 14.6056 53.3987 14.6056 53.777V55.6682H56.842C57.2203 55.6682 57.4725 55.9204 57.4725 56.2986C57.4725 56.6768 57.2203 56.929 56.842 56.929H14.6055V73.3192H61.2545V53.777C61.2545 53.3987 61.5067 53.1465 61.885 53.1465H74.4928C74.745 53.1465 74.871 53.2726 74.9971 53.3987C75.1231 53.6509 75.1231 53.777 74.9971 54.0292L70.08 62.6026L74.9971 71.176C75.1231 71.4282 75.1231 71.5542 74.9971 71.8064C74.871 72.0586 74.6188 72.0586 74.4928 72.0586H66.9281C66.5498 72.0586 66.2976 71.8064 66.2976 71.4282C66.2976 71.05 66.5498 70.7978 66.9281 70.7978H73.3581L68.8193 62.8548C68.6932 62.6026 68.6932 62.4766 68.8193 62.2243L73.3581 54.2814H62.5153V73.9495C62.5153 74.3278 62.2632 74.58 61.885 74.58ZM35.4084 68.6542C35.2824 68.6542 35.1562 68.6542 35.0302 68.5282C34.9042 68.4022 34.778 68.1499 34.9042 67.8977L35.6607 65.7544L33.8955 64.3674C33.6433 64.2414 33.6433 63.8632 33.6433 63.611C33.6433 63.3588 34.0215 63.2327 34.2737 63.2327H36.4171L37.5518 61.0893C37.804 60.7111 38.4343 60.7111 38.6865 61.0893L39.8212 63.2327H41.9646C42.2168 63.2327 42.4689 63.3588 42.5951 63.611C42.7211 63.8632 42.5951 64.1152 42.3429 64.3674L40.5777 65.7544L41.3342 67.7716C41.4602 68.0238 41.3342 68.2758 41.2082 68.402C41.0821 68.528 40.7039 68.6542 40.5777 68.528L38.3083 67.5194L36.0389 68.528C35.6605 68.6542 35.5345 68.6542 35.4084 68.6542ZM37.9299 66.2588C38.056 66.2588 38.056 66.2588 38.1821 66.2588L39.3168 66.763L38.9386 65.6283C38.8126 65.3761 38.9386 65.1241 39.1908 64.8719L39.8212 64.3676H39.0648C38.8126 64.3676 38.5605 64.2416 38.5605 63.9893L37.804 62.6024L37.0476 63.9893C36.9215 64.2416 36.6693 64.3676 36.5433 64.3676H35.9129L36.5433 64.8719C36.7955 64.9979 36.9215 65.3761 36.7955 65.6283L36.4173 66.763L37.552 66.2588C37.8039 66.2588 37.9299 66.2588 37.9299 66.2588ZM22.8005 68.6542C22.6744 68.6542 22.5483 68.6542 22.4222 68.5282C22.2962 68.4022 22.17 68.1499 22.2962 67.8977L23.0527 65.7544L21.2875 64.3674C21.0353 64.2414 21.0353 63.8632 21.0353 63.611C21.0353 63.3588 21.4136 63.2327 21.6658 63.2327H23.8092L24.9439 61.0893C25.1961 60.7111 25.8264 60.7111 26.0786 61.0893L27.2133 63.2327H29.3567C29.6089 63.2327 29.8609 63.3588 29.9871 63.611C30.1131 63.8632 29.9871 64.1152 29.7349 64.3674L27.9698 65.7544L28.7262 67.7716C28.8523 68.0238 28.7262 68.2758 28.6002 68.402C28.4742 68.528 28.0959 68.6542 27.9698 68.528L25.7003 67.5194L23.4309 68.528C23.0527 68.6542 22.9267 68.6542 22.8005 68.6542ZM25.3221 66.2588C25.4481 66.2588 25.4481 66.2588 25.5743 66.2588L26.709 66.763L26.3308 65.6283C26.2048 65.3761 26.3308 65.1241 26.583 64.9979L27.2134 64.4936H26.457C26.2048 64.4936 25.9527 64.3676 25.9527 64.1154L25.1962 62.7285L24.4397 64.1154C24.3137 64.3676 24.0615 64.4936 23.9355 64.4936H23.305L23.9355 64.9979C24.1877 65.1239 24.3137 65.5021 24.1877 65.7544L23.8095 66.8891L24.9442 66.3848C25.1961 66.2588 25.3221 66.2588 25.3221 66.2588ZM48.0163 68.6542C47.8902 68.6542 47.7641 68.6542 47.638 68.5282C47.512 68.4022 47.3858 68.1499 47.512 67.8977L48.2685 65.7544L46.5033 64.3674C46.2511 64.2414 46.2511 63.8632 46.2511 63.611C46.3771 63.3588 46.6294 63.2327 46.8816 63.2327H49.0249L50.1597 61.0893C50.4119 60.7111 51.0422 60.7111 51.2944 61.0893L52.4291 63.2327H54.5725C54.8247 63.2327 55.0767 63.3588 55.2029 63.611C55.3289 63.8632 55.2029 64.1152 54.9507 64.3674L53.1855 65.7544L53.942 67.7716C54.068 68.0238 53.942 68.2758 53.816 68.402C53.69 68.528 53.3117 68.6542 53.1855 68.528L50.9161 67.5194L48.6467 68.528C48.2685 68.6542 48.1423 68.6542 48.0163 68.6542ZM50.5379 66.2588C50.6639 66.2588 50.6639 66.2588 50.7901 66.2588L51.9248 66.763L51.5466 65.6283C51.4205 65.3761 51.5466 65.1241 51.7988 64.8719L52.4292 64.3676H51.6727C51.4205 64.3676 51.1685 64.2416 51.1685 63.9893L50.412 62.6024L49.6555 63.9893C49.5295 64.2416 49.2773 64.3676 49.1513 64.3676H48.5208L49.1513 64.8719C49.4035 64.9979 49.5295 65.3761 49.4035 65.6283L49.0252 66.763L50.16 66.2588C50.4117 66.2588 50.5379 66.2588 50.5379 66.2588ZM74.4928 49.3642C74.1146 49.3642 73.8624 49.112 73.8624 48.7337V5.86702C73.8624 3.47158 71.8451 1.45422 69.4495 1.45422H6.4103C4.01485 1.45422 1.99749 3.47158 1.99749 5.86702V12.8013H69.4495C69.8278 12.8013 70.08 13.0535 70.08 13.4317C70.08 13.81 69.8278 14.0622 69.4495 14.0622H1.3672C0.988962 14.0622 0.736755 13.81 0.736755 13.4317V5.86702C0.736755 2.7151 3.25838 0.193481 6.4103 0.193481H69.4497C72.6016 0.193481 75.1232 2.7151 75.1232 5.86702V48.7337C75.1232 49.112 74.871 49.3642 74.4928 49.3642ZM1.3672 49.3642C0.988962 49.3642 0.736755 49.112 0.736755 48.7337V18.4748C0.736755 18.0966 0.988962 17.8444 1.3672 17.8444C1.74543 17.8444 1.99764 18.0966 1.99764 18.4748V48.7337C1.99749 49.112 1.74543 49.3642 1.3672 49.3642ZM60.6241 44.3211H50.5377C50.1595 44.3211 49.9073 44.0689 49.9073 43.6906C49.9073 43.3124 50.1595 43.0602 50.5377 43.0602H60.6241C61.0023 43.0602 61.2545 43.3124 61.2545 43.6906C61.2545 44.0689 61.0023 44.3211 60.6241 44.3211ZM42.9732 44.3211H32.8868C32.5086 44.3211 32.2564 44.0689 32.2564 43.6906C32.2564 43.3124 32.5086 43.0602 32.8868 43.0602H42.9732C43.3514 43.0602 43.6036 43.3124 43.6036 43.6906C43.6035 44.0689 43.3514 44.3211 42.9732 44.3211ZM25.3221 44.3211H15.2358C14.8575 44.3211 14.6053 44.0689 14.6053 43.6906C14.6053 43.3124 14.8575 43.0602 15.2358 43.0602H25.3221C25.7003 43.0602 25.9525 43.3124 25.9525 43.6906C25.9525 44.0689 25.7003 44.3211 25.3221 44.3211ZM61.885 39.2778H49.2771C48.8989 39.2778 48.6467 39.0256 48.6467 38.6474V31.0827C48.6467 30.7044 48.8989 30.4522 49.2771 30.4522H61.885C62.2632 30.4522 62.5154 30.7044 62.5154 31.0827V38.6474C62.5153 39.0258 62.2632 39.2778 61.885 39.2778ZM49.9074 38.0171H61.2545V31.7131H49.9074V38.0171ZM44.2339 39.2778H31.6261C31.2478 39.2778 30.9956 39.0256 30.9956 38.6474V31.0827C30.9956 30.7044 31.2478 30.4522 31.6261 30.4522H44.2339C44.6121 30.4522 44.8643 30.7044 44.8643 31.0827V38.6474C44.8643 39.0258 44.6121 39.2778 44.2339 39.2778ZM32.2564 38.0171H43.6035V31.7131H32.2564V38.0171ZM26.5828 39.2778H13.975C13.5968 39.2778 13.3446 39.0256 13.3446 38.6474V31.0827C13.3446 30.7044 13.5968 30.4522 13.975 30.4522H26.5828C26.9611 30.4522 27.2133 30.7044 27.2133 31.0827V38.6474C27.2133 39.0258 26.9611 39.2778 26.5828 39.2778ZM14.6055 38.0171H25.9525V31.7131H14.6055V38.0171ZM66.9281 21.6269H61.885C61.5067 21.6269 61.2545 21.3747 61.2545 20.9965C61.2545 20.6182 61.5067 20.366 61.885 20.366H66.9281C67.3063 20.366 67.5585 20.6182 67.5585 20.9965C67.5585 21.3747 67.3063 21.6269 66.9281 21.6269ZM56.8417 21.6269H51.7986C51.4204 21.6269 51.1682 21.3747 51.1682 20.9965C51.1682 20.6182 51.4204 20.366 51.7986 20.366H56.8417C57.22 20.366 57.4722 20.6182 57.4722 20.9965C57.4722 21.3747 57.22 21.6269 56.8417 21.6269ZM46.7555 21.6269H41.7124C41.3342 21.6269 41.082 21.3747 41.082 20.9965C41.082 20.6182 41.3342 20.366 41.7124 20.366H46.7555C47.1338 20.366 47.386 20.6182 47.386 20.9965C47.3858 21.3747 47.1338 21.6269 46.7555 21.6269ZM19.0181 21.6269H8.93192C8.55368 21.6269 8.30148 21.3747 8.30148 20.9965C8.30148 20.6182 8.55368 20.366 8.93192 20.366H19.0183C19.3965 20.366 19.6487 20.6182 19.6487 20.9965C19.6486 21.3747 19.3964 21.6269 19.0181 21.6269ZM25.3221 9.01894C24.3134 9.01894 23.4309 8.13644 23.4309 7.12776C23.4309 6.11908 24.3134 5.23658 25.3221 5.23658C26.3308 5.23658 27.2133 6.11908 27.2133 7.12776C27.2133 8.13644 26.3308 9.01894 25.3221 9.01894ZM25.3221 6.49747C24.9439 6.49747 24.6917 6.74967 24.6917 7.12791C24.6917 7.50614 24.9439 7.75835 25.3221 7.75835C25.7003 7.75835 25.9525 7.50614 25.9525 7.12791C25.9525 6.74952 25.7003 6.49747 25.3221 6.49747ZM17.7574 9.01894C16.7487 9.01894 15.8662 8.13644 15.8662 7.12776C15.8662 6.11908 16.7487 5.23658 17.7574 5.23658C18.7661 5.23658 19.6486 6.11908 19.6486 7.12776C19.6486 8.13644 18.7661 9.01894 17.7574 9.01894ZM17.7574 6.49747C17.3791 6.49747 17.1269 6.74967 17.1269 7.12791C17.1269 7.50614 17.3791 7.75835 17.7574 7.75835C18.1356 7.75835 18.3878 7.50614 18.3878 7.12791C18.3878 6.74952 18.1356 6.49747 17.7574 6.49747ZM10.1927 9.01894C9.18398 9.01894 8.30148 8.13644 8.30148 7.12776C8.30148 6.11908 9.18398 5.23658 10.1927 5.23658C11.2013 5.23658 12.0838 6.11908 12.0838 7.12776C12.0838 8.13644 11.2013 9.01894 10.1927 9.01894ZM10.1927 6.49747C9.81442 6.49747 9.56221 6.74967 9.56221 7.12791C9.56221 7.50614 9.81442 7.75835 10.1927 7.75835C10.5709 7.75835 10.8231 7.50614 10.8231 7.12791C10.8231 6.74952 10.5709 6.49747 10.1927 6.49747Z" fill="#51565F"/>
</g>
<defs>
<clipPath id="clip0_20_139">
<rect width="74.3865" height="74.3865" fill="white" transform="translate(0.736755 0.193481)"/>
</clipPath>
</defs>
</svg>
