<svg width="12" height="13" viewBox="0 0 12 13" fill="none" xmlns="http://www.w3.org/2000/svg">
<g clip-path="url(#clip0_20_265)">
<path d="M0 12.8699L1.032 9.77408C0.508345 8.89332 0.206897 7.86546 0.206897 6.76643C0.206897 3.50987 2.8469 0.869873 6.10345 0.869873C9.36 0.869873 12 3.50987 12 6.76643C12 10.023 9.36 12.663 6.10345 12.663C5.11262 12.663 4.17952 12.4174 3.36 11.9858L0 12.8699Z" fill="#FAFAFA"/>
<path d="M9.30293 8.78717C9.06605 8.33952 8.19251 7.8276 8.19251 7.8276C7.99487 7.71493 7.75637 7.70233 7.64369 7.9032C7.64369 7.9032 7.35983 8.24358 7.28764 8.29254C6.95788 8.51591 6.65242 8.50727 6.34408 8.19894L5.6275 7.48237L4.91092 6.7658C4.60258 6.45747 4.59394 6.15201 4.81732 5.82226C4.86628 5.75008 5.20666 5.46622 5.20666 5.46622C5.40754 5.35336 5.39494 5.11505 5.28226 4.91741C5.28226 4.91741 4.77034 4.04388 4.32268 3.80701C4.13224 3.70621 3.89841 3.74149 3.74613 3.89377L3.42969 4.2102C2.42583 5.21405 2.92011 6.34731 3.92397 7.35115L4.84144 8.2686L5.7589 9.18604C6.76276 10.1899 7.89605 10.6842 8.89991 9.68032L9.21635 9.36388C9.36863 9.21124 9.40373 8.97743 9.30293 8.78717Z" fill="#2F2E41"/>
</g>
<defs>
<clipPath id="clip0_20_265">
<rect width="12" height="12" fill="white" transform="translate(0 0.869873)"/>
</clipPath>
</defs>
</svg>
